# xmcd
#
# Track frame offsets: 
#        150
#        14136
#        28353
#        40983
#        55059
#        66910
#        78151
#        94177
#        105424
#        116258
#        125889
#        143065
#        164043
#        175843
#        191026
#        200157
#        211966
#        222582
#        234856
#        246765
#        259188
#        268225
#        281089
#        290610
#        303285
#        314491
#        326827
#        341154
#
# Disc length: 4738 seconds
#
# Revision: 0
# Processed by: cddbd v1.5.2PL0 Copyright (c) Steve Scherf et al.
# Submitted via: ExactAudioCopy v0.95b4
#
DISCID=c212801c
DTITLE=Engelbert Humperdinck  - The Very Best of Disc 2 [Flac]
DYEAR=1900
DGENRE=
TTITLE0=My World (Il Mondo)
TTITLE1=The Way It Used to Be
TTITLE2=Love can Fly
TTITLE3=Don't Say no (Again)
TTITLE4=Let Me Into Your Life
TTITLE5=Through the Eyes of Love
TTITLE6=A Man and a Woman
TTITLE7=To Get to You
TTITLE8=Pretty Ribbon
TTITLE9=If I Were You
TTITLE10=From Here to Eternity
TTITLE11=Those Were the Days
TTITLE12=You Love
TTITLE13=True
TTITLE14=Dommage, Dommage
TTITLE15=If It Comes to That
TTITLE16=A Good Thing Going
TTITLE17=A Place in the Sun
TTITLE18=Long Gone
TTITLE19=What a Wonderful World
TTITLE20=Miss Elane E.S. Jones
TTITLE21=Yours Untill Tomorrow
TTITLE22=Misty Blue
TTITLE23=That Promise
TTITLE24=Take My Heart
TTITLE25=How Near is Love
TTITLE26=What Now My Love
TTITLE27=Talking Love
EXTD=
EXTT0=
EXTT1=
EXTT2=
EXTT3=
EXTT4=
EXTT5=
EXTT6=
EXTT7=
EXTT8=
EXTT9=
EXTT10=
EXTT11=
EXTT12=
EXTT13=
EXTT14=
EXTT15=
EXTT16=
EXTT17=
EXTT18=
EXTT19=
EXTT20=
EXTT21=
EXTT22=
EXTT23=
EXTT24=
EXTT25=
EXTT26=
EXTT27=
PLAYORDER=
